<mxfile host="app.diagrams.net" modified="2022-09-02T23:56:37.649Z" agent="5.0 (Macintosh; Intel Mac OS X 10_15_7) AppleWebKit/605.1.15 (KHTML, like Gecko) Version/15.6.1 Safari/605.1.15" etag="fgbxoLDIpv48Xjt1v3Rd" version="20.2.8" type="github">
  <diagram id="eoDmwnrt7AnTwp-9dPMA" name="Page-1">
    <mxGraphModel dx="1234" dy="771" grid="1" gridSize="10" guides="1" tooltips="1" connect="1" arrows="1" fold="1" page="1" pageScale="1" pageWidth="827" pageHeight="1169" math="0" shadow="0">
      <root>
        <mxCell id="0" />
        <mxCell id="1" parent="0" />
        <mxCell id="ShVAkj0LqA4WIsUWeWla-1" value="client - downcast-webapp" style="aspect=fixed;perimeter=ellipsePerimeter;html=1;align=center;shadow=0;dashed=0;spacingTop=3;image;image=img/lib/active_directory/laptop_client.svg;labelBackgroundColor=none;" vertex="1" parent="1">
          <mxGeometry x="432.5" y="130" width="54" height="60" as="geometry" />
        </mxCell>
        <mxCell id="ShVAkj0LqA4WIsUWeWla-2" value="session-manager-api" style="rounded=0;whiteSpace=wrap;html=1;fillColor=#6d8764;fontColor=#ffffff;strokeColor=#3A5431;" vertex="1" parent="1">
          <mxGeometry x="60" y="380" width="70" height="40" as="geometry" />
        </mxCell>
        <mxCell id="ShVAkj0LqA4WIsUWeWla-11" style="edgeStyle=orthogonalEdgeStyle;rounded=0;orthogonalLoop=1;jettySize=auto;html=1;exitX=0.5;exitY=1;exitDx=0;exitDy=0;entryX=0.5;entryY=0;entryDx=0;entryDy=0;entryPerimeter=0;fontSize=7;" edge="1" parent="1" source="ShVAkj0LqA4WIsUWeWla-4" target="ShVAkj0LqA4WIsUWeWla-6">
          <mxGeometry relative="1" as="geometry" />
        </mxCell>
        <mxCell id="ShVAkj0LqA4WIsUWeWla-4" value="user-manager-api" style="rounded=0;whiteSpace=wrap;html=1;fillColor=#6d8764;fontColor=#ffffff;strokeColor=#3A5431;" vertex="1" parent="1">
          <mxGeometry x="432.5" y="500" width="75" height="40" as="geometry" />
        </mxCell>
        <mxCell id="ShVAkj0LqA4WIsUWeWla-10" value="" style="group" vertex="1" connectable="0" parent="1">
          <mxGeometry x="445" y="580" width="55.70999999999998" height="70" as="geometry" />
        </mxCell>
        <mxCell id="ShVAkj0LqA4WIsUWeWla-6" value="Users" style="shape=cylinder3;whiteSpace=wrap;html=1;boundedLbl=1;backgroundOutline=1;size=6.809523809523739;fillColor=none;" vertex="1" parent="ShVAkj0LqA4WIsUWeWla-10">
          <mxGeometry width="50" height="50" as="geometry" />
        </mxCell>
        <mxCell id="ShVAkj0LqA4WIsUWeWla-9" value="&lt;font style=&quot;font-size: 7px;&quot;&gt;Firestore&lt;/font&gt;" style="sketch=0;html=1;verticalAlign=top;labelPosition=center;verticalLabelPosition=bottom;align=center;spacingTop=-6;fontSize=11;fontStyle=1;fontColor=#999999;shape=image;aspect=fixed;imageAspect=0;image=data:image/svg+xml,PHN2ZyB4bWxucz0iaHR0cDovL3d3dy53My5vcmcvMjAwMC9zdmciIHhtbG5zOnY9Imh0dHBzOi8vdmVjdGEuaW8vbmFubyIgd2lkdGg9IjMyMy45MDU2MTAzOTg2NzUxNSIgaGVpZ2h0PSIzNzYuNDIyMjk0OTYzNjg0MDciIHZpZXdCb3g9Ii0wLjA5NzAwMDAwMjg2MTAyMjk1IDAuMjg3OTk5OTg3NjAyMjMzOSA4NS42OTk5OTY5NDgyNDIxOSA5OS41OTUwMDEyMjA3MDMxMiI+JiN4YTs8c3R5bGUgdHlwZT0idGV4dC9jc3MiPiYjeGE7CS5zdDB7ZmlsbDojYWVjYmZhO30mI3hhOwkuc3Qxe2ZpbGw6IzY2OWRmNjt9JiN4YTsJLnN0MntmaWxsOiM0Mjg1ZjQ7fSYjeGE7PC9zdHlsZT4mI3hhOwk8cGF0aCBjbGFzcz0ic3QwIiBkPSJNLS4wOTcgNzUuODE1VjU1Ljg3NGw0Mi44NS0yMC4xODN2MTkuMDd6bTAtMzUuNDAzVjIwLjQ3MUw0Mi43NTMuMjg4djE5LjA3eiIvPiYjeGE7CTxwYXRoIGNsYXNzPSJzdDEiIGQ9Ik04NS42MDMgNzUuODE1VjU1Ljg3NGwtNDIuODUtMjAuMTgzdjE5LjA3em0wLTM1LjQwM1YyMC40NzFMNDIuNzUzLjI4OHYxOS4wN3oiLz4mI3hhOwk8cGF0aCBjbGFzcz0ic3QyIiBkPSJNNDIuNzUzIDgwLjMxNGwxNi4yMTctNy41MjUgMjEuMDg0IDkuNzE3LTM3LjMwMSAxNy4zNzd6Ii8+JiN4YTs8L3N2Zz4=;fillColor=none;" vertex="1" parent="ShVAkj0LqA4WIsUWeWla-10">
          <mxGeometry x="30" y="40" width="25.71" height="30" as="geometry" />
        </mxCell>
        <mxCell id="ShVAkj0LqA4WIsUWeWla-12" style="edgeStyle=orthogonalEdgeStyle;rounded=0;orthogonalLoop=1;jettySize=auto;html=1;exitX=0.5;exitY=1;exitDx=0;exitDy=0;entryX=0.5;entryY=0;entryDx=0;entryDy=0;entryPerimeter=0;fontSize=7;" edge="1" source="ShVAkj0LqA4WIsUWeWla-13" target="ShVAkj0LqA4WIsUWeWla-15" parent="1">
          <mxGeometry relative="1" as="geometry" />
        </mxCell>
        <mxCell id="ShVAkj0LqA4WIsUWeWla-13" value="bookmarks-api" style="rounded=0;whiteSpace=wrap;html=1;fillColor=#6d8764;fontColor=#ffffff;strokeColor=#3A5431;" vertex="1" parent="1">
          <mxGeometry x="570" y="320" width="75" height="40" as="geometry" />
        </mxCell>
        <mxCell id="ShVAkj0LqA4WIsUWeWla-14" value="" style="group" vertex="1" connectable="0" parent="1">
          <mxGeometry x="582.5" y="400" width="55.70999999999998" height="70" as="geometry" />
        </mxCell>
        <mxCell id="ShVAkj0LqA4WIsUWeWla-15" value="&lt;font style=&quot;font-size: 9px;&quot;&gt;bookmarks&lt;/font&gt;" style="shape=cylinder3;whiteSpace=wrap;html=1;boundedLbl=1;backgroundOutline=1;size=6.809523809523739;fillColor=none;" vertex="1" parent="ShVAkj0LqA4WIsUWeWla-14">
          <mxGeometry width="50" height="50" as="geometry" />
        </mxCell>
        <mxCell id="ShVAkj0LqA4WIsUWeWla-16" value="&lt;font style=&quot;font-size: 7px;&quot;&gt;Firestore&lt;/font&gt;" style="sketch=0;html=1;verticalAlign=top;labelPosition=center;verticalLabelPosition=bottom;align=center;spacingTop=-6;fontSize=11;fontStyle=1;fontColor=#999999;shape=image;aspect=fixed;imageAspect=0;image=data:image/svg+xml,PHN2ZyB4bWxucz0iaHR0cDovL3d3dy53My5vcmcvMjAwMC9zdmciIHhtbG5zOnY9Imh0dHBzOi8vdmVjdGEuaW8vbmFubyIgd2lkdGg9IjMyMy45MDU2MTAzOTg2NzUxNSIgaGVpZ2h0PSIzNzYuNDIyMjk0OTYzNjg0MDciIHZpZXdCb3g9Ii0wLjA5NzAwMDAwMjg2MTAyMjk1IDAuMjg3OTk5OTg3NjAyMjMzOSA4NS42OTk5OTY5NDgyNDIxOSA5OS41OTUwMDEyMjA3MDMxMiI+JiN4YTs8c3R5bGUgdHlwZT0idGV4dC9jc3MiPiYjeGE7CS5zdDB7ZmlsbDojYWVjYmZhO30mI3hhOwkuc3Qxe2ZpbGw6IzY2OWRmNjt9JiN4YTsJLnN0MntmaWxsOiM0Mjg1ZjQ7fSYjeGE7PC9zdHlsZT4mI3hhOwk8cGF0aCBjbGFzcz0ic3QwIiBkPSJNLS4wOTcgNzUuODE1VjU1Ljg3NGw0Mi44NS0yMC4xODN2MTkuMDd6bTAtMzUuNDAzVjIwLjQ3MUw0Mi43NTMuMjg4djE5LjA3eiIvPiYjeGE7CTxwYXRoIGNsYXNzPSJzdDEiIGQ9Ik04NS42MDMgNzUuODE1VjU1Ljg3NGwtNDIuODUtMjAuMTgzdjE5LjA3em0wLTM1LjQwM1YyMC40NzFMNDIuNzUzLjI4OHYxOS4wN3oiLz4mI3hhOwk8cGF0aCBjbGFzcz0ic3QyIiBkPSJNNDIuNzUzIDgwLjMxNGwxNi4yMTctNy41MjUgMjEuMDg0IDkuNzE3LTM3LjMwMSAxNy4zNzd6Ii8+JiN4YTs8L3N2Zz4=;fillColor=none;" vertex="1" parent="ShVAkj0LqA4WIsUWeWla-14">
          <mxGeometry x="30" y="40" width="25.71" height="30" as="geometry" />
        </mxCell>
        <mxCell id="ShVAkj0LqA4WIsUWeWla-17" style="edgeStyle=orthogonalEdgeStyle;rounded=0;orthogonalLoop=1;jettySize=auto;html=1;exitX=0.5;exitY=1;exitDx=0;exitDy=0;fontSize=7;" edge="1" source="ShVAkj0LqA4WIsUWeWla-18" target="ShVAkj0LqA4WIsUWeWla-20" parent="1">
          <mxGeometry relative="1" as="geometry" />
        </mxCell>
        <mxCell id="ShVAkj0LqA4WIsUWeWla-18" value="security-codes-api" style="rounded=0;whiteSpace=wrap;html=1;fillColor=#6d8764;fontColor=#ffffff;strokeColor=#3A5431;" vertex="1" parent="1">
          <mxGeometry x="517.5" y="500" width="65" height="40" as="geometry" />
        </mxCell>
        <mxCell id="ShVAkj0LqA4WIsUWeWla-19" value="" style="group" vertex="1" connectable="0" parent="1">
          <mxGeometry x="525" y="580" width="55.70999999999998" height="70" as="geometry" />
        </mxCell>
        <mxCell id="ShVAkj0LqA4WIsUWeWla-20" value="&lt;font style=&quot;font-size: 9px;&quot;&gt;security-codes&lt;/font&gt;" style="shape=cylinder3;whiteSpace=wrap;html=1;boundedLbl=1;backgroundOutline=1;size=6.809523809523739;fillColor=none;" vertex="1" parent="ShVAkj0LqA4WIsUWeWla-19">
          <mxGeometry width="50" height="50" as="geometry" />
        </mxCell>
        <mxCell id="ShVAkj0LqA4WIsUWeWla-21" value="&lt;font style=&quot;font-size: 7px;&quot;&gt;Firestore&lt;/font&gt;" style="sketch=0;html=1;verticalAlign=top;labelPosition=center;verticalLabelPosition=bottom;align=center;spacingTop=-6;fontSize=11;fontStyle=1;fontColor=#999999;shape=image;aspect=fixed;imageAspect=0;image=data:image/svg+xml,PHN2ZyB4bWxucz0iaHR0cDovL3d3dy53My5vcmcvMjAwMC9zdmciIHhtbG5zOnY9Imh0dHBzOi8vdmVjdGEuaW8vbmFubyIgd2lkdGg9IjMyMy45MDU2MTAzOTg2NzUxNSIgaGVpZ2h0PSIzNzYuNDIyMjk0OTYzNjg0MDciIHZpZXdCb3g9Ii0wLjA5NzAwMDAwMjg2MTAyMjk1IDAuMjg3OTk5OTg3NjAyMjMzOSA4NS42OTk5OTY5NDgyNDIxOSA5OS41OTUwMDEyMjA3MDMxMiI+JiN4YTs8c3R5bGUgdHlwZT0idGV4dC9jc3MiPiYjeGE7CS5zdDB7ZmlsbDojYWVjYmZhO30mI3hhOwkuc3Qxe2ZpbGw6IzY2OWRmNjt9JiN4YTsJLnN0MntmaWxsOiM0Mjg1ZjQ7fSYjeGE7PC9zdHlsZT4mI3hhOwk8cGF0aCBjbGFzcz0ic3QwIiBkPSJNLS4wOTcgNzUuODE1VjU1Ljg3NGw0Mi44NS0yMC4xODN2MTkuMDd6bTAtMzUuNDAzVjIwLjQ3MUw0Mi43NTMuMjg4djE5LjA3eiIvPiYjeGE7CTxwYXRoIGNsYXNzPSJzdDEiIGQ9Ik04NS42MDMgNzUuODE1VjU1Ljg3NGwtNDIuODUtMjAuMTgzdjE5LjA3em0wLTM1LjQwM1YyMC40NzFMNDIuNzUzLjI4OHYxOS4wN3oiLz4mI3hhOwk8cGF0aCBjbGFzcz0ic3QyIiBkPSJNNDIuNzUzIDgwLjMxNGwxNi4yMTctNy41MjUgMjEuMDg0IDkuNzE3LTM3LjMwMSAxNy4zNzd6Ii8+JiN4YTs8L3N2Zz4=;fillColor=none;" vertex="1" parent="ShVAkj0LqA4WIsUWeWla-19">
          <mxGeometry x="30" y="40" width="25.71" height="30" as="geometry" />
        </mxCell>
        <mxCell id="ShVAkj0LqA4WIsUWeWla-22" value="authentication-api" style="rounded=0;whiteSpace=wrap;html=1;fillColor=#6d8764;fontColor=#ffffff;strokeColor=#3A5431;" vertex="1" parent="1">
          <mxGeometry x="235" y="320" width="89.3" height="40" as="geometry" />
        </mxCell>
        <mxCell id="ShVAkj0LqA4WIsUWeWla-23" value="password-manager-api" style="rounded=0;whiteSpace=wrap;html=1;fillColor=#6d8764;fontColor=#ffffff;strokeColor=#3A5431;" vertex="1" parent="1">
          <mxGeometry x="333" y="320" width="75" height="40" as="geometry" />
        </mxCell>
        <mxCell id="ShVAkj0LqA4WIsUWeWla-24" style="edgeStyle=orthogonalEdgeStyle;rounded=0;orthogonalLoop=1;jettySize=auto;html=1;exitX=0.5;exitY=1;exitDx=0;exitDy=0;entryX=0.5;entryY=0;entryDx=0;entryDy=0;entryPerimeter=0;fontSize=7;" edge="1" source="ShVAkj0LqA4WIsUWeWla-25" target="ShVAkj0LqA4WIsUWeWla-27" parent="1">
          <mxGeometry relative="1" as="geometry" />
        </mxCell>
        <mxCell id="ShVAkj0LqA4WIsUWeWla-25" value="articles-manager-api" style="rounded=0;whiteSpace=wrap;html=1;fillColor=none;" vertex="1" parent="1">
          <mxGeometry x="150" y="320" width="75" height="40" as="geometry" />
        </mxCell>
        <mxCell id="ShVAkj0LqA4WIsUWeWla-26" value="" style="group" vertex="1" connectable="0" parent="1">
          <mxGeometry x="162.64999999999998" y="400" width="55.70999999999998" height="70" as="geometry" />
        </mxCell>
        <mxCell id="ShVAkj0LqA4WIsUWeWla-27" value="articles" style="shape=cylinder3;whiteSpace=wrap;html=1;boundedLbl=1;backgroundOutline=1;size=6.809523809523739;fillColor=none;" vertex="1" parent="ShVAkj0LqA4WIsUWeWla-26">
          <mxGeometry width="50" height="50" as="geometry" />
        </mxCell>
        <mxCell id="ShVAkj0LqA4WIsUWeWla-28" value="&lt;font style=&quot;font-size: 7px;&quot;&gt;Firestore&lt;/font&gt;" style="sketch=0;html=1;verticalAlign=top;labelPosition=center;verticalLabelPosition=bottom;align=center;spacingTop=-6;fontSize=11;fontStyle=1;fontColor=#999999;shape=image;aspect=fixed;imageAspect=0;image=data:image/svg+xml,PHN2ZyB4bWxucz0iaHR0cDovL3d3dy53My5vcmcvMjAwMC9zdmciIHhtbG5zOnY9Imh0dHBzOi8vdmVjdGEuaW8vbmFubyIgd2lkdGg9IjMyMy45MDU2MTAzOTg2NzUxNSIgaGVpZ2h0PSIzNzYuNDIyMjk0OTYzNjg0MDciIHZpZXdCb3g9Ii0wLjA5NzAwMDAwMjg2MTAyMjk1IDAuMjg3OTk5OTg3NjAyMjMzOSA4NS42OTk5OTY5NDgyNDIxOSA5OS41OTUwMDEyMjA3MDMxMiI+JiN4YTs8c3R5bGUgdHlwZT0idGV4dC9jc3MiPiYjeGE7CS5zdDB7ZmlsbDojYWVjYmZhO30mI3hhOwkuc3Qxe2ZpbGw6IzY2OWRmNjt9JiN4YTsJLnN0MntmaWxsOiM0Mjg1ZjQ7fSYjeGE7PC9zdHlsZT4mI3hhOwk8cGF0aCBjbGFzcz0ic3QwIiBkPSJNLS4wOTcgNzUuODE1VjU1Ljg3NGw0Mi44NS0yMC4xODN2MTkuMDd6bTAtMzUuNDAzVjIwLjQ3MUw0Mi43NTMuMjg4djE5LjA3eiIvPiYjeGE7CTxwYXRoIGNsYXNzPSJzdDEiIGQ9Ik04NS42MDMgNzUuODE1VjU1Ljg3NGwtNDIuODUtMjAuMTgzdjE5LjA3em0wLTM1LjQwM1YyMC40NzFMNDIuNzUzLjI4OHYxOS4wN3oiLz4mI3hhOwk8cGF0aCBjbGFzcz0ic3QyIiBkPSJNNDIuNzUzIDgwLjMxNGwxNi4yMTctNy41MjUgMjEuMDg0IDkuNzE3LTM3LjMwMSAxNy4zNzd6Ii8+JiN4YTs8L3N2Zz4=;fillColor=none;" vertex="1" parent="ShVAkj0LqA4WIsUWeWla-26">
          <mxGeometry x="30" y="40" width="25.71" height="30" as="geometry" />
        </mxCell>
        <mxCell id="ShVAkj0LqA4WIsUWeWla-29" style="edgeStyle=orthogonalEdgeStyle;rounded=0;orthogonalLoop=1;jettySize=auto;html=1;exitX=0.5;exitY=1;exitDx=0;exitDy=0;entryX=0.5;entryY=0;entryDx=0;entryDy=0;entryPerimeter=0;fontSize=7;" edge="1" source="ShVAkj0LqA4WIsUWeWla-30" target="ShVAkj0LqA4WIsUWeWla-32" parent="1">
          <mxGeometry relative="1" as="geometry" />
        </mxCell>
        <mxCell id="ShVAkj0LqA4WIsUWeWla-30" value="likes-api" style="rounded=0;whiteSpace=wrap;html=1;fillColor=#647687;fontColor=#ffffff;strokeColor=#314354;" vertex="1" parent="1">
          <mxGeometry x="657" y="320" width="60" height="40" as="geometry" />
        </mxCell>
        <mxCell id="ShVAkj0LqA4WIsUWeWla-31" value="" style="group" vertex="1" connectable="0" parent="1">
          <mxGeometry x="661.29" y="400" width="55.70999999999998" height="70" as="geometry" />
        </mxCell>
        <mxCell id="ShVAkj0LqA4WIsUWeWla-32" value="likes" style="shape=cylinder3;whiteSpace=wrap;html=1;boundedLbl=1;backgroundOutline=1;size=6.809523809523739;fillColor=none;" vertex="1" parent="ShVAkj0LqA4WIsUWeWla-31">
          <mxGeometry width="50" height="50" as="geometry" />
        </mxCell>
        <mxCell id="ShVAkj0LqA4WIsUWeWla-33" value="&lt;font style=&quot;font-size: 7px;&quot;&gt;Firestore&lt;/font&gt;" style="sketch=0;html=1;verticalAlign=top;labelPosition=center;verticalLabelPosition=bottom;align=center;spacingTop=-6;fontSize=11;fontStyle=1;fontColor=#999999;shape=image;aspect=fixed;imageAspect=0;image=data:image/svg+xml,PHN2ZyB4bWxucz0iaHR0cDovL3d3dy53My5vcmcvMjAwMC9zdmciIHhtbG5zOnY9Imh0dHBzOi8vdmVjdGEuaW8vbmFubyIgd2lkdGg9IjMyMy45MDU2MTAzOTg2NzUxNSIgaGVpZ2h0PSIzNzYuNDIyMjk0OTYzNjg0MDciIHZpZXdCb3g9Ii0wLjA5NzAwMDAwMjg2MTAyMjk1IDAuMjg3OTk5OTg3NjAyMjMzOSA4NS42OTk5OTY5NDgyNDIxOSA5OS41OTUwMDEyMjA3MDMxMiI+JiN4YTs8c3R5bGUgdHlwZT0idGV4dC9jc3MiPiYjeGE7CS5zdDB7ZmlsbDojYWVjYmZhO30mI3hhOwkuc3Qxe2ZpbGw6IzY2OWRmNjt9JiN4YTsJLnN0MntmaWxsOiM0Mjg1ZjQ7fSYjeGE7PC9zdHlsZT4mI3hhOwk8cGF0aCBjbGFzcz0ic3QwIiBkPSJNLS4wOTcgNzUuODE1VjU1Ljg3NGw0Mi44NS0yMC4xODN2MTkuMDd6bTAtMzUuNDAzVjIwLjQ3MUw0Mi43NTMuMjg4djE5LjA3eiIvPiYjeGE7CTxwYXRoIGNsYXNzPSJzdDEiIGQ9Ik04NS42MDMgNzUuODE1VjU1Ljg3NGwtNDIuODUtMjAuMTgzdjE5LjA3em0wLTM1LjQwM1YyMC40NzFMNDIuNzUzLjI4OHYxOS4wN3oiLz4mI3hhOwk8cGF0aCBjbGFzcz0ic3QyIiBkPSJNNDIuNzUzIDgwLjMxNGwxNi4yMTctNy41MjUgMjEuMDg0IDkuNzE3LTM3LjMwMSAxNy4zNzd6Ii8+JiN4YTs8L3N2Zz4=;fillColor=none;" vertex="1" parent="ShVAkj0LqA4WIsUWeWla-31">
          <mxGeometry x="30" y="40" width="25.71" height="30" as="geometry" />
        </mxCell>
        <mxCell id="ShVAkj0LqA4WIsUWeWla-34" style="edgeStyle=orthogonalEdgeStyle;rounded=0;orthogonalLoop=1;jettySize=auto;html=1;exitX=0.5;exitY=1;exitDx=0;exitDy=0;fontSize=7;" edge="1" source="ShVAkj0LqA4WIsUWeWla-35" target="ShVAkj0LqA4WIsUWeWla-37" parent="1">
          <mxGeometry relative="1" as="geometry" />
        </mxCell>
        <mxCell id="ShVAkj0LqA4WIsUWeWla-35" value="comments-api" style="rounded=0;whiteSpace=wrap;html=1;fillColor=#647687;fontColor=#ffffff;strokeColor=#314354;" vertex="1" parent="1">
          <mxGeometry x="730" y="320" width="75" height="40" as="geometry" />
        </mxCell>
        <mxCell id="ShVAkj0LqA4WIsUWeWla-36" value="" style="group" vertex="1" connectable="0" parent="1">
          <mxGeometry x="742.5" y="400" width="55.70999999999998" height="70" as="geometry" />
        </mxCell>
        <mxCell id="ShVAkj0LqA4WIsUWeWla-37" value="&lt;font style=&quot;font-size: 10px;&quot;&gt;comments&lt;/font&gt;" style="shape=cylinder3;whiteSpace=wrap;html=1;boundedLbl=1;backgroundOutline=1;size=6.809523809523739;fillColor=none;" vertex="1" parent="ShVAkj0LqA4WIsUWeWla-36">
          <mxGeometry width="50" height="50" as="geometry" />
        </mxCell>
        <mxCell id="ShVAkj0LqA4WIsUWeWla-38" value="&lt;font style=&quot;font-size: 7px;&quot;&gt;Firestore&lt;/font&gt;" style="sketch=0;html=1;verticalAlign=top;labelPosition=center;verticalLabelPosition=bottom;align=center;spacingTop=-6;fontSize=11;fontStyle=1;fontColor=#999999;shape=image;aspect=fixed;imageAspect=0;image=data:image/svg+xml,PHN2ZyB4bWxucz0iaHR0cDovL3d3dy53My5vcmcvMjAwMC9zdmciIHhtbG5zOnY9Imh0dHBzOi8vdmVjdGEuaW8vbmFubyIgd2lkdGg9IjMyMy45MDU2MTAzOTg2NzUxNSIgaGVpZ2h0PSIzNzYuNDIyMjk0OTYzNjg0MDciIHZpZXdCb3g9Ii0wLjA5NzAwMDAwMjg2MTAyMjk1IDAuMjg3OTk5OTg3NjAyMjMzOSA4NS42OTk5OTY5NDgyNDIxOSA5OS41OTUwMDEyMjA3MDMxMiI+JiN4YTs8c3R5bGUgdHlwZT0idGV4dC9jc3MiPiYjeGE7CS5zdDB7ZmlsbDojYWVjYmZhO30mI3hhOwkuc3Qxe2ZpbGw6IzY2OWRmNjt9JiN4YTsJLnN0MntmaWxsOiM0Mjg1ZjQ7fSYjeGE7PC9zdHlsZT4mI3hhOwk8cGF0aCBjbGFzcz0ic3QwIiBkPSJNLS4wOTcgNzUuODE1VjU1Ljg3NGw0Mi44NS0yMC4xODN2MTkuMDd6bTAtMzUuNDAzVjIwLjQ3MUw0Mi43NTMuMjg4djE5LjA3eiIvPiYjeGE7CTxwYXRoIGNsYXNzPSJzdDEiIGQ9Ik04NS42MDMgNzUuODE1VjU1Ljg3NGwtNDIuODUtMjAuMTgzdjE5LjA3em0wLTM1LjQwM1YyMC40NzFMNDIuNzUzLjI4OHYxOS4wN3oiLz4mI3hhOwk8cGF0aCBjbGFzcz0ic3QyIiBkPSJNNDIuNzUzIDgwLjMxNGwxNi4yMTctNy41MjUgMjEuMDg0IDkuNzE3LTM3LjMwMSAxNy4zNzd6Ii8+JiN4YTs8L3N2Zz4=;fillColor=none;" vertex="1" parent="ShVAkj0LqA4WIsUWeWla-36">
          <mxGeometry x="30" y="40" width="25.71" height="30" as="geometry" />
        </mxCell>
        <mxCell id="ShVAkj0LqA4WIsUWeWla-39" value="api-gateway" style="rounded=0;whiteSpace=wrap;html=1;fillColor=none;" vertex="1" parent="1">
          <mxGeometry x="411.08" y="250" width="90" height="40" as="geometry" />
        </mxCell>
        <mxCell id="ShVAkj0LqA4WIsUWeWla-40" value="registration-api" style="rounded=0;whiteSpace=wrap;html=1;fillColor=none;" vertex="1" parent="1">
          <mxGeometry x="420" y="320" width="72.15" height="40" as="geometry" />
        </mxCell>
        <mxCell id="ShVAkj0LqA4WIsUWeWla-41" value="user-profie-api" style="rounded=0;whiteSpace=wrap;html=1;fillColor=none;" vertex="1" parent="1">
          <mxGeometry x="500" y="320" width="59.3" height="40" as="geometry" />
        </mxCell>
        <mxCell id="ShVAkj0LqA4WIsUWeWla-42" value="email-server-api" style="rounded=0;whiteSpace=wrap;html=1;fillColor=none;" vertex="1" parent="1">
          <mxGeometry x="358.57" y="500" width="65" height="40" as="geometry" />
        </mxCell>
        <mxCell id="ShVAkj0LqA4WIsUWeWla-43" value="markdown-converter-api" style="rounded=0;whiteSpace=wrap;html=1;fillColor=#6d8764;fontColor=#ffffff;strokeColor=#3A5431;" vertex="1" parent="1">
          <mxGeometry x="270" y="500" width="75" height="40" as="geometry" />
        </mxCell>
      </root>
    </mxGraphModel>
  </diagram>
</mxfile>
